<svg version="1.1" id="Layer_1" xmlns="http://www.w3.org/2000/svg" x="0" y="0" viewBox="0 0 512.004 512.004" style="enable-background:new 0 0 512.004 512.004" xml:space="preserve"><g fill="#b8b8b8"><path d="m505.026 218.88-42.667-38.763v-.021l-14.357-13.056V21.333C448.002 9.557 438.466 0 426.669 0h-85.333c-11.797 0-21.333 9.557-21.333 21.333v29.355L270.359 5.547c-8.128-7.381-20.587-7.381-28.715 0l-192 174.549v.021L6.978 218.88c-8.704 7.915-9.344 21.419-1.429 30.144 7.936 8.725 21.461 9.365 30.144 1.429l6.976-6.336v246.549c0 11.776 9.536 21.333 21.333 21.333h106.667V320c0-35.285 28.715-64 64-64h42.667c35.285 0 64 28.715 64 64v192h106.667c11.797 0 21.333-9.557 21.333-21.333v-246.55l6.976 6.336A21.32 21.32 0 0 0 490.669 256c5.781 0 11.584-2.347 15.787-6.976 7.914-8.725 7.274-22.229-1.43-30.144zm-99.69-90.624-24.533-22.315-18.133-16.469V42.667h42.667v85.589z"/><path d="M277.335 298.671h-42.667c-11.776 0-21.333 9.579-21.333 21.333v192h85.333v-192c.001-11.754-9.557-21.333-21.333-21.333z"/></g></svg>